<svg width="636" height="300" viewBox="0 0 636 300" fill="none" xmlns="http://www.w3.org/2000/svg">
<path d="M481.31 223.185C359.583 273.209 180.219 284.302 122.88 228.164C56.6518 163.335 160.776 84.6359 256.373 121.165C319.903 145.434 403.184 141.413 455.896 134.649C545.258 123.17 564.041 189.189 481.31 223.185Z" fill="url(#paint0_radial_2596_5478)"/>
<path d="M256.921 60.1841L255.635 61.9731L256.53 62.616L257.816 60.827L256.921 60.1841Z" fill="#908D89"/>
<path d="M306.992 98.8253L305.119 97.4814L306.397 95.6968L308.27 97.0407L306.992 98.8253ZM301.385 94.8045L299.512 93.4605L300.801 91.6759L302.674 93.0199L301.385 94.8045ZM295.777 90.7836L293.905 89.4396L295.183 87.655L297.055 88.999L295.777 90.7836ZM290.17 86.7627L288.298 85.4188L289.586 83.6342L291.459 84.9781L290.17 86.7627ZM284.574 82.7309L282.701 81.3869L283.979 79.6023L285.852 80.9462L284.574 82.7309ZM278.967 78.71L277.094 77.366L278.383 75.5814L280.256 76.9254L278.967 78.71ZM273.36 74.6891L271.487 73.3452L272.765 71.5606L274.638 72.9045L273.36 74.6891ZM267.753 70.6683L265.88 69.3243L267.169 67.5397L269.041 68.8836L267.753 70.6683ZM262.145 66.6364L260.273 65.2924L261.551 63.5078L263.423 64.8518L262.145 66.6364Z" fill="#908D89"/>
<path d="M312.021 99.7192L310.736 101.509L311.631 102.152L312.916 100.361L312.021 99.7192Z" fill="#908D89"/>
<path d="M336.592 89.8249L334.389 89.7147L334.499 87.5115L336.703 87.6216L336.592 89.8249ZM336.912 83.2152L334.709 83.1051L334.819 80.9018L337.022 81.012L336.912 83.2152ZM337.231 76.6166L335.028 76.5064L335.138 74.3032L337.341 74.4134L337.231 76.6166Z" fill="#908D89"/>
<path d="M365.829 90.5517L364.485 88.8111L366.225 87.4672L367.569 89.2077L365.829 90.5517ZM371.061 86.5198L369.717 84.7792L371.458 83.4353L372.802 85.1758L371.061 86.5198ZM376.294 82.4879L374.95 80.7474L376.702 79.4034L378.046 81.1439L376.294 82.4879ZM381.538 78.456L380.194 76.7155L381.934 75.3715L383.278 77.1121L381.538 78.456ZM386.77 74.4241L385.426 72.6836L387.167 71.3396L388.511 73.0802L386.77 74.4241ZM392.003 70.3923L390.659 68.6517L392.411 67.3078L393.755 69.0483L392.003 70.3923ZM397.247 66.3604L395.903 64.6198L397.643 63.2759L398.987 65.0164L397.247 66.3604Z" fill="#908D89"/>
<path d="M367.988 112.364L367.558 110.204L369.717 109.775L370.147 111.934L367.988 112.364ZM374.465 111.086L374.036 108.927L376.195 108.497L376.624 110.656L374.465 111.086ZM380.954 109.797L380.524 107.638L382.683 107.208L383.113 109.367L380.954 109.797ZM387.431 108.519L387.001 106.36L389.161 105.93L389.59 108.089L387.431 108.519ZM393.92 107.23L393.49 105.071L395.649 104.641L396.079 106.8L393.92 107.23ZM400.408 105.952L399.978 103.793L402.138 103.363L402.567 105.523L400.408 105.952ZM406.885 104.663L406.456 102.504L408.615 102.075L409.045 104.234L406.885 104.663ZM413.374 103.386L412.944 101.226L415.103 100.797L415.533 102.956L413.374 103.386ZM419.862 102.097L419.433 99.9375L421.592 99.5078L422.022 101.667L419.862 102.097ZM426.34 100.808L425.91 98.6486L428.069 98.219L428.499 100.378L426.34 100.808ZM432.828 99.5299L432.399 97.3707L434.558 96.9411L434.987 99.1002L432.828 99.5299ZM439.306 98.241L438.876 96.0818L441.035 95.6522L441.465 97.8114L439.306 98.241ZM445.794 96.9631L445.365 94.804L447.524 94.3744L447.953 96.5335L445.794 96.9631ZM452.272 95.6743L451.842 93.5151L454.001 93.0855L454.431 95.2446L452.272 95.6743ZM458.76 94.3964L458.33 92.2372L460.49 91.8076L460.919 93.9668L458.76 94.3964Z" fill="#908D89"/>
<path d="M309.999 113.575L308.005 113.036L308.578 110.909L310.572 111.449L309.999 113.575ZM303.753 111.89L301.627 111.317L302.2 109.191L304.326 109.764L303.753 111.89ZM297.375 110.16L295.249 109.588L295.822 107.461L297.948 108.034L297.375 110.16ZM290.997 108.431L288.87 107.858L289.443 105.732L291.569 106.305L290.997 108.431ZM284.618 106.701L282.492 106.128L283.065 104.002L285.191 104.575L284.618 106.701ZM278.24 104.972L276.114 104.399L276.687 102.273L278.813 102.846L278.24 104.972ZM271.851 103.242L269.724 102.669L270.297 100.543L272.423 101.116L271.851 103.242ZM265.472 101.513L263.346 100.94L263.919 98.8138L266.045 99.3866L265.472 101.513ZM259.094 99.7832L256.968 99.2104L257.541 97.0843L259.667 97.6571L259.094 99.7832ZM252.716 98.0537L250.59 97.4809L251.162 95.3548L253.289 95.9276L252.716 98.0537ZM246.337 96.3242L244.211 95.7513L244.784 93.6252L246.91 94.1981L246.337 96.3242ZM239.959 94.5947L237.833 94.0218L238.406 91.8957L240.532 92.4686L239.959 94.5947ZM233.581 92.8651L231.455 92.2923L232.027 90.1662L234.154 90.739L233.581 92.8651ZM227.202 91.1356L225.076 90.5628L225.649 88.4367L227.775 89.0095L227.202 91.1356ZM220.813 89.4061L218.687 88.8333L219.26 86.7072L221.386 87.28L220.813 89.4061ZM214.435 87.6766L212.309 87.1037L212.882 84.9776L215.008 85.5505L214.435 87.6766ZM208.057 85.947L205.93 85.3742L206.503 83.2481L208.629 83.8209L208.057 85.947ZM201.678 84.2175L199.552 83.6447L200.125 81.5186L202.251 82.0914L201.678 84.2175ZM195.3 82.488L193.174 81.9152L193.747 79.7891L195.873 80.3619L195.3 82.488Z" fill="#908D89"/>
<path d="M278.394 207.663C277.612 204.447 274.528 199.853 266.64 200.117L263.49 200.338L263.346 200.228L261.573 200.47L190.519 205.339C184.394 205.339 179.084 209.206 177.63 214.736L164.003 272.669H168.63L182.004 215.727C182.753 212.896 184.648 211.409 187.269 211.023C197.569 211.023 208.585 211.574 215.57 211.949C214.303 214.064 213.355 216.818 212.882 220.552L211.295 258.106H215.79L217.354 220.96C217.817 216.873 219.216 214.152 220.979 212.235C221.188 212.246 221.397 212.257 221.573 212.257C221.673 212.257 221.761 212.246 221.86 212.246C227.059 213.16 231.62 215.088 232.711 221.147L239.408 282H243.914L237.657 221.114C237.04 215.804 233.746 211.794 228.425 209.613L267.279 204.215C270.386 204.072 273.096 205.669 274.109 208.864L291.955 266.842L295.767 264.87L278.394 207.663Z" fill="#C8C6C4"/>
<path d="M208.464 202.123C208.464 202.123 188.635 207.135 178.633 207.135C168.641 207.135 163.673 198.256 161.095 184.42C158.517 170.584 153.538 128.877 156.259 116.781C158.198 108.167 163.992 104.785 173.665 104.487C179.459 104.3 192.359 103.87 204.289 105.721C216.22 107.561 224.349 124.636 231.686 135.85C253.608 169.361 267.918 191.051 267.918 191.051L208.464 202.123Z" fill="url(#paint1_radial_2596_5478)"/>
<path d="M269.681 200.327L207.076 208.534C202.295 208.534 169.423 203.489 169.423 198.73V194.445C169.423 189.686 186.983 186.667 191.775 186.667L269.692 178.802C274.473 178.802 278.35 182.657 278.35 187.416V191.702C278.339 196.472 274.462 200.327 269.681 200.327Z" fill="url(#paint2_linear_2596_5478)"/>
<path d="M297.143 156.891C296.438 157.353 279.628 168.27 263.544 162.619C254.247 159.358 247.307 151.427 242.911 139.045L251.405 135.641C254.809 145.214 259.865 151.239 266.442 153.564C278.438 157.805 292.252 148.915 292.385 148.827L297.143 156.891Z" fill="#8A6FE8"/>
<path d="M241.336 208.28C242.824 200.756 244.542 185.246 238.737 170.903L229.869 174.031C235.134 187.041 233.173 200.701 231.896 206.595C231.796 207.08 236.511 208.424 241.336 208.28Z" fill="url(#paint3_linear_2596_5478)"/>
<path d="M231.917 206.518L239.342 207.862L239.254 246.837L224.36 244.127C223.226 243.918 222.532 242.893 222.807 241.825L231.917 206.518Z" fill="#522CD5"/>
<path d="M256.968 239.875C258.07 241.075 257.794 242.474 257.42 243.928L256.274 248.39C256.065 249.183 255.205 249.712 254.346 249.558L238.825 246.738C237.855 246.561 237.271 245.691 237.503 244.777L238.483 240.117C238.913 238.442 238.428 237.704 237.348 235.843C235.487 232.659 231.245 216.432 233.724 206.837L241.369 208.225C240.774 214.097 246.404 228.396 256.968 239.875Z" fill="url(#paint4_linear_2596_5478)"/>
<path d="M257.408 243.928C257.673 242.915 257.871 241.923 257.607 241.02L238.24 237.506C238.637 238.354 238.736 239.048 238.461 240.128L237.48 244.787C237.249 245.691 237.844 246.572 238.802 246.737L254.324 249.557C255.172 249.712 256.042 249.183 256.252 248.39L257.408 243.928Z" fill="url(#paint5_radial_2596_5478)"/>
<path d="M212.364 204.26C220.042 195.844 224.768 190.974 224.548 188.562C224.493 187.956 223.744 186.744 220.461 184.376C217.685 182.371 214.457 180.102 214.457 180.091L220.241 172.677C220.241 172.677 223.501 174.979 226.31 177.006C230.056 179.705 233.592 182.845 234 187.471C234.572 193.828 231.356 197.243 220.031 209.658L212.364 204.26Z" fill="url(#paint6_linear_2596_5478)"/>
<path d="M268.193 140.973C269.515 128.249 265.726 118.819 265.726 118.819L268.755 118.368L268.821 118.302C260.757 96.5339 237.249 82.6426 212.397 86.377C184.394 90.5852 165.281 115.559 169.71 142.162C174.138 168.766 200.433 186.921 228.436 182.713C250.534 179.397 267.092 163.137 270.914 143.363C270.98 142.537 270.727 141.105 268.193 140.973Z" fill="url(#paint7_radial_2596_5478)"/>
<path d="M268.293 152.352L180.737 165.505C183.226 168.38 186.047 170.958 189.131 173.216L262.796 162.145C265.021 159.094 266.86 155.811 268.293 152.352Z" fill="#D8CFF7"/>
<path d="M243.198 167.775L259.634 165.307L257.331 151.504L240.906 153.972L243.198 167.775Z" fill="#512BD4"/>
<path d="M245.214 162.201C245.104 162.212 245.005 162.201 244.916 162.135C244.828 162.08 244.773 161.991 244.762 161.903C244.751 161.804 244.773 161.716 244.839 161.628C244.905 161.551 244.994 161.496 245.104 161.485C245.214 161.474 245.313 161.485 245.401 161.551C245.489 161.606 245.544 161.694 245.555 161.793C245.566 161.892 245.544 161.98 245.478 162.069C245.412 162.135 245.324 162.179 245.214 162.201Z" fill="white"/>
<path d="M249.576 161.496L248.86 161.606L246.525 159.072C246.47 159.006 246.415 158.94 246.37 158.874H246.359C246.392 158.951 246.426 159.127 246.47 159.392L246.877 161.892L246.249 161.981L245.621 158.158L246.381 158.048L248.64 160.515C248.739 160.615 248.794 160.692 248.827 160.725H248.838C248.805 160.626 248.761 160.46 248.728 160.218L248.32 157.761L248.948 157.673L249.576 161.496Z" fill="white"/>
<path d="M252.639 161.044L250.436 161.375L249.808 157.552L251.923 157.244L252.011 157.783L250.546 158.004L250.722 159.083L252.066 158.885L252.154 159.425L250.81 159.623L250.997 160.747L252.551 160.515L252.639 161.044Z" fill="white"/>
<path d="M255.228 157.299L254.104 157.464L254.644 160.747L253.994 160.846L253.454 157.563L252.33 157.728L252.242 157.188L255.139 156.759L255.228 157.299Z" fill="white"/>
<path d="M268.303 140.95C269.603 128.381 265.935 119.039 265.836 118.808L213.234 126.706C213.234 126.706 209.863 126.882 210.348 129.758C210.822 132.633 212.309 140.741 213.796 149.73C214.104 151.58 215.845 152.23 217.101 152.043C217.101 152.043 267.312 143.142 268.303 140.95Z" fill="url(#paint8_radial_2596_5478)"/>
<path d="M236.919 145.687C236.919 145.687 243.991 138.384 245.39 137.029C246.778 135.663 248.155 135.398 249.797 136.368C251.438 137.337 260.548 142.14 260.548 142.14L236.919 145.687Z" fill="#A08BE8"/>
<path d="M270.804 144.002C270.804 144.002 271.884 141.148 268.304 140.95C268.304 140.939 216.572 148.683 216.572 148.683C215.371 148.86 213.708 148.419 213.388 147.329C213.521 148.122 213.653 148.926 213.796 149.741C214.071 151.415 215.537 152.109 216.737 152.076C216.858 152.076 216.98 152.065 217.101 152.043L220.637 151.515L270.804 144.002Z" fill="#512BD4"/>
<path d="M228.609 142.159C230.783 141.737 231.998 138.572 231.322 135.09C230.647 131.608 228.337 129.127 226.163 129.549C223.989 129.971 222.774 133.135 223.449 136.617C224.125 140.099 226.435 142.58 228.609 142.159Z" fill="#512BD4"/>
<path d="M226.828 132.688C227.511 131.795 228.547 131.289 229.615 131.223C230.42 132.236 231.047 133.613 231.345 135.199C231.521 136.191 231.554 137.138 231.444 138.02C230.243 138.548 228.8 138.46 227.655 137.667C225.98 136.51 225.606 134.274 226.828 132.688Z" fill="#8065E0"/>
<path d="M298.355 140.279L286.194 147.968C284.189 149.235 283.495 151.879 284.64 153.872L284.85 154.225C285.995 156.219 288.562 156.803 290.567 155.536L302.729 147.847C304.734 146.58 305.428 143.936 304.282 141.942L304.073 141.59C302.916 139.596 300.36 139.012 298.355 140.279Z" fill="#8A6FE8"/>
<path d="M292.076 164.547L300.746 167.048C303.059 167.698 305.461 166.243 306.1 163.809C306.739 161.363 305.384 158.863 303.07 158.213L294.18 155.646L292.076 164.547Z" fill="#8A6FE8"/>
<path d="M296.174 161.738L308.468 159.656C310.837 159.248 312.467 156.891 312.093 154.401C311.729 151.911 309.504 150.226 307.124 150.634L297.981 152.154L296.174 161.738Z" fill="#8A6FE8"/>
<path d="M295.447 159.028L307.003 154.071C309.239 153.112 310.33 150.446 309.438 148.111C308.556 145.776 306.023 144.652 303.786 145.599L292.021 150.645L295.447 159.028Z" fill="#8A6FE8"/>
<path d="M284.067 149.939C286.932 145.566 292.605 144.442 296.736 147.417C300.867 150.391 301.891 156.351 299.016 160.724C296.152 165.097 290.479 166.221 286.348 163.247C282.228 160.261 281.203 154.302 284.067 149.939Z" fill="url(#paint9_radial_2596_5478)"/>
<path d="M207.065 84.3713L216.528 82.9172L212.254 66.8447L205.457 67.8802L207.065 84.3713Z" fill="#8A6FE8"/>
<path d="M211.637 73.5427C208.332 74.9197 204.465 73.5207 202.989 70.4031C201.524 67.2966 203 63.6723 206.316 62.2953C209.621 60.9183 213.488 62.3173 214.964 65.4349C216.429 68.5414 214.942 72.1657 211.637 73.5427Z" fill="#D8CFF7"/>
<path d="M204.421 90.5072C204.003 90.5733 203.584 90.2759 203.573 89.8793C203.331 85.583 206.558 81.7164 211.185 81.0003C215.812 80.2953 220.196 82.9832 221.441 87.1253C221.562 87.5219 221.276 87.9184 220.857 87.9735L204.421 90.5072Z" fill="#522CD5"/>
<path d="M212.452 204.215L218.423 208.412L208.696 250.174L187.435 235.27C186.52 234.631 186.399 233.419 187.159 232.56L212.452 204.215Z" fill="#522CD5"/>
<path d="M220.604 245.702C221.155 247.189 220.152 248.621 219.117 249.789L215.922 253.369C215.349 254.008 214.325 254.14 213.642 253.655L206.129 248.379C205.358 247.828 205.247 246.803 205.897 246.076L209.026 242.243C210.227 240.899 210.788 239.907 210.083 237.913C205.908 226.137 207.396 215.198 214.578 205.713L220.042 209.558C216.682 214.636 213.421 226.159 220.604 245.702Z" fill="url(#paint10_linear_2596_5478)"/>
<path d="M213.631 253.655C214.314 254.14 215.338 254.008 215.911 253.369L219.106 249.789C219.789 249.017 220.45 248.147 220.67 247.211L210.337 239.951C210.205 240.777 209.72 241.449 209.015 242.243L205.887 246.076C205.237 246.803 205.347 247.828 206.118 248.378L213.631 253.655Z" fill="url(#paint11_radial_2596_5478)"/>
<path d="M260.566 137.367C262.74 136.945 263.955 133.78 263.28 130.298C262.604 126.816 260.295 124.335 258.121 124.757C255.947 125.179 254.732 128.343 255.407 131.825C256.082 135.307 258.392 137.788 260.566 137.367Z" fill="#512BD4"/>
<path d="M258.786 127.896C259.469 127.004 260.504 126.497 261.573 126.431C262.377 127.444 263.005 128.821 263.302 130.407C263.479 131.399 263.512 132.346 263.402 133.228C262.201 133.756 260.758 133.668 259.612 132.875C257.938 131.718 257.563 129.482 258.786 127.896Z" fill="#8065E0"/>
<path d="M181.21 177.072C177.156 171.663 176.815 160.537 182.488 148.045C183.546 145.709 192.403 149.08 191.345 151.415C185.474 164.403 187.875 170.991 188.635 171.806C190.662 173.998 196.754 173.899 203.771 171.564C206.151 170.771 208.795 172.148 209.665 174.626C210.535 177.116 209.312 179.771 206.933 180.553C200.488 182.69 188.69 185.235 182.125 178.162C181.794 177.821 181.497 177.457 181.21 177.072Z" fill="url(#paint12_linear_2596_5478)"/>
<path d="M218.346 163.071L205.226 167.345C203.066 168.05 201.921 170.463 202.67 172.743L202.802 173.151C203.551 175.42 205.92 176.698 208.079 175.993L221.199 171.719C223.358 171.013 224.504 168.601 223.755 166.321L223.622 165.913C222.873 163.633 220.505 162.366 218.346 163.071Z" fill="#8A6FE8"/>
<path d="M207.252 184.893L215.371 189.752C217.541 191.029 220.251 190.368 221.43 188.264C222.609 186.16 221.794 183.417 219.623 182.139L211.306 177.16L207.252 184.893Z" fill="#8A6FE8"/>
<path d="M210.458 183.902L223.193 185.521C225.649 185.83 227.798 184.089 227.974 181.643C228.15 179.198 226.299 176.973 223.843 176.675L214.369 175.441L210.458 183.902Z" fill="#8A6FE8"/>
<path d="M210.623 179.892L223.259 178.592C225.704 178.35 227.379 176.158 227.004 173.712C226.63 171.266 224.349 169.482 221.915 169.724L209.048 171.035L210.623 179.892Z" fill="#8A6FE8"/>
<path d="M202.46 168.876C206.283 165.615 212.199 166.199 215.68 170.187C219.161 174.175 218.863 180.046 215.041 183.318C211.218 186.579 205.303 185.995 201.821 182.007C198.34 178.019 198.627 172.137 202.46 168.876Z" fill="url(#paint13_radial_2596_5478)"/>
<path d="M188.305 154.765C193.513 154.765 197.734 150.755 197.734 145.809C197.734 140.862 193.513 136.853 188.305 136.853C183.097 136.853 178.875 140.862 178.875 145.809C178.875 150.755 183.097 154.765 188.305 154.765Z" fill="url(#paint14_radial_2596_5478)"/>
<path d="M155.686 120.879C154.442 136.401 158.749 171.873 161.084 184.431C163.662 198.267 168.818 207.488 178.82 207.488L206.977 208.578C208.398 208.578 209.169 206.915 208.233 205.835C194.694 190.237 163.056 149.896 155.686 120.879Z" fill="#1BA6C5"/>
<path d="M391.364 271.832C390.163 271.557 283.032 271.557 281.82 271.843C279.287 272.438 278.846 274.399 280.873 275.225C280.895 275.236 280.917 275.236 280.939 275.247C285.158 277.153 308.49 278.618 336.636 278.618C364.617 278.618 387.828 277.175 392.256 275.28C392.267 275.28 392.267 275.28 392.278 275.28C392.311 275.269 392.333 275.258 392.367 275.247C392.378 275.247 392.378 275.236 392.389 275.236C394.404 274.355 393.854 272.405 391.364 271.832Z" fill="#1BA6C5"/>
<path d="M356.289 269.023C348.555 264.859 339.842 246.561 339.842 226.49C339.842 209.393 340.415 173.128 370.665 168.402L339.379 161.693L337.572 161.914L304.48 168.413C334.73 173.128 335.303 209.404 335.303 226.501C335.303 246.385 324.54 264.837 316.796 269.045C295.458 269.618 280.267 271.072 280.267 272.779C280.267 274.983 305.505 276.778 336.647 276.778C367.778 276.778 393.027 274.994 393.027 272.779C393.016 271.061 377.737 269.596 356.289 269.023Z" fill="url(#paint15_linear_2596_5478)"/>
<path d="M430.834 161.705C428.829 161.352 245.489 161.485 244.057 161.804C240.95 162.509 239.717 164.977 244.839 165.946H244.85C254.643 168.039 292.473 169.603 337.649 169.603C383.983 169.603 422.583 167.962 431.132 165.792H431.143C435.803 164.767 434.965 162.443 430.834 161.705Z" fill="#57CACF"/>
<path d="M337.65 167.422C390.264 167.422 432.917 165.306 432.917 162.696C432.917 160.086 390.264 157.97 337.65 157.97C285.035 157.97 242.383 160.086 242.383 162.696C242.383 165.306 285.035 167.422 337.65 167.422Z" fill="#9FE4EB"/>
<path d="M260.009 158.168L315.012 153.365C315.012 153.365 310.958 161.065 310.55 161.065C310.154 161.076 260.009 158.168 260.009 158.168Z" fill="#C8C6C4"/>
<path d="M346.408 161.826H263.666C261.65 161.826 260.02 160.196 260.02 158.18H350.065C350.054 160.185 348.423 161.826 346.408 161.826Z" fill="#605D5A"/>
<path d="M306.54 161.826H263.666C261.65 161.826 260.02 160.196 260.02 158.18H350.065H310.198C310.187 160.185 308.545 161.826 306.54 161.826Z" fill="#797673"/>
<path d="M363.736 93.1295L322.205 93.5811C321.225 93.5921 320.387 94.2861 320.2 95.2445L307.455 158.168H350.032L366.225 96.3021C366.633 94.6937 365.399 93.1184 363.736 93.1295Z" fill="#B3AFAB"/>
<path d="M363.736 93.1295L324.904 93.5811C323.924 93.5921 323.086 94.2861 322.899 95.2445L310.154 158.168H350.021L366.214 96.3021C366.633 94.6937 365.399 93.1184 363.736 93.1295Z" fill="#737373"/>
<path d="M328.782 166.287H317.435L315.375 140.752H330.853L328.782 166.287Z" fill="white"/>
<path d="M330.445 145.819L330.853 140.752H315.375L315.783 145.819H330.445Z" fill="#E1DFDD"/>
<path d="M331.69 142.404H314.219C313.624 142.404 313.172 141.853 313.293 141.269L313.998 137.976C314.086 137.546 314.472 137.227 314.924 137.227H330.974C331.415 137.227 331.8 137.535 331.899 137.976L332.604 141.269C332.737 141.853 332.285 142.404 331.69 142.404Z" fill="#605D5A"/>
<path d="M237.381 22.7151C236.346 23.0566 235.321 23.4642 234.319 23.9379C232.942 24.5989 231.675 25.359 230.496 26.2182L232.611 30.7678C231.444 31.7483 230.419 32.8499 229.56 34.0396L223.953 33.4778C222.686 35.703 221.838 38.1045 221.441 40.5721L226.409 42.6542C226.299 44.2956 226.453 45.97 226.883 47.6004C225.671 48.3936 223.633 49.6714 222.333 50.4866C222.664 51.423 223.072 52.3483 223.545 53.2516C224.206 54.4965 224.999 55.6531 225.87 56.7107L230.948 54.7278C232.05 55.8624 233.316 56.8208 234.682 57.614L233.79 62.7255C236.181 63.816 238.78 64.5101 241.457 64.7744L244.068 60.0706C245.577 60.0706 247.087 59.8943 248.596 59.5418L251.603 63.6949C252.694 63.3424 253.773 62.9237 254.831 62.417C256.274 61.723 257.607 60.9188 258.83 60.0155L256.648 55.4879C257.849 54.4634 258.896 53.3177 259.766 52.0729L265.153 52.9432C266.497 50.5968 267.378 48.0521 267.753 45.4412C266.177 44.9015 263.974 44.1303 262.729 43.6677C262.829 42.1695 262.707 40.6493 262.355 39.1621L266.982 36.3971C266.618 35.2844 266.155 34.1828 265.583 33.1033C264.878 31.7813 264.04 30.5585 263.093 29.4349L258.224 31.6601C257.067 30.4594 255.734 29.4569 254.28 28.6417L255.47 23.6845C253.156 22.616 250.667 21.9219 248.078 21.6245L245.897 26.3063C244.068 26.2292 242.217 26.4055 240.378 26.8571L237.381 22.7151ZM253.828 38.7325C256.329 43.4143 254.203 49.1977 249.08 51.6543C243.969 54.1109 237.789 52.3043 235.299 47.6224C232.799 42.9406 234.925 37.1572 240.047 34.7006C245.17 32.244 251.339 34.0506 253.828 38.7325Z" fill="#A7A4A0"/>
<path d="M515.173 95.3765H469.104C467.32 95.3765 465.865 93.9224 465.865 92.1378V58.9794C465.865 57.1948 467.32 55.7407 469.104 55.7407H515.173C516.958 55.7407 518.412 57.1948 518.412 58.9794V92.1378C518.412 93.9334 516.958 95.3765 515.173 95.3765Z" fill="#84817D"/>
<path d="M465.865 87.269V92.5347C465.865 94.11 467.143 95.3769 468.708 95.3769H515.526C517.112 95.3769 518.412 94.088 518.412 92.4907V87.269H465.865Z" fill="#C5D43B"/>
<path d="M485.783 78.3239V64.1903C485.783 62.9675 487.105 62.2074 488.162 62.8133L500.412 69.8856C501.47 70.4915 501.47 72.0227 500.412 72.6286L488.151 79.7009C487.105 80.3068 485.783 79.5467 485.783 78.3239Z" fill="white"/>
<path d="M187.424 81.8711H135.141C133.346 81.8711 131.892 80.417 131.892 78.6213V44.2512C131.892 42.4556 133.346 41.0015 135.141 41.0015H187.424C189.219 41.0015 190.673 42.4556 190.673 44.2512V78.6213C190.673 80.417 189.219 81.8711 187.424 81.8711Z" fill="#C5D43B"/>
<path d="M190.673 48.8446V43.2264C190.673 42.0037 189.682 41.0122 188.459 41.0122H134.117C132.894 41.0122 131.903 42.0037 131.903 43.2264V48.8446H190.673Z" fill="#84817D"/>
<path d="M141.553 44.2295H136.937V46.5869H141.553V44.2295Z" fill="#CCCAC7"/>
<path d="M149.076 44.2295H144.461V46.5869H149.076V44.2295Z" fill="#CCCAC7"/>
<path d="M154.981 71.1085L141.575 65.2149V63.8489L154.981 57.1621V59.2441L144.064 64.4217L154.981 69.0044V71.1085Z" fill="white"/>
<path d="M166.669 54.0884L159.068 74.4901H156.755L164.356 54.0884H166.669Z" fill="white"/>
<path d="M168.41 69.0044L179.338 64.4547L168.41 59.2441V57.1621L181.816 63.8489V65.2149L168.41 71.1085V69.0044Z" fill="white"/>
<path d="M353.292 68.6078H312.202V18H339.225L353.292 31.4506V68.6078Z" fill="#58D0DB"/>
<path d="M339.225 18V31.4727H353.292V31.4506L339.225 18Z" fill="#9FE4EB"/>
<path d="M344.491 38.0822H320.42C320.002 38.0822 319.671 37.7407 319.671 37.3331C319.671 36.9255 320.013 36.584 320.42 36.584H344.491C344.909 36.584 345.24 36.9255 345.24 37.3331C345.24 37.7407 344.909 38.0822 344.491 38.0822Z" fill="#1189A5"/>
<path d="M338.476 44.1085H320.42C320.002 44.1085 319.671 43.767 319.671 43.3594C319.671 42.9408 320.013 42.6104 320.42 42.6104H338.476C338.894 42.6104 339.225 42.9518 339.225 43.3594C339.225 43.767 338.894 44.1085 338.476 44.1085Z" fill="#1189A5"/>
<path d="M344.491 50.1232H320.42C320.002 50.1232 319.671 49.7817 319.671 49.3741C319.671 48.9555 320.013 48.625 320.42 48.625H344.491C344.909 48.625 345.24 48.9665 345.24 49.3741C345.24 49.7817 344.909 50.1232 344.491 50.1232Z" fill="#1189A5"/>
<path d="M338.476 56.1378H320.42C320.002 56.1378 319.671 55.7963 319.671 55.3887C319.671 54.9701 320.013 54.6396 320.42 54.6396H338.476C338.894 54.6396 339.225 54.9811 339.225 55.3887C339.225 55.7963 338.894 56.1378 338.476 56.1378Z" fill="#1189A5"/>
<path d="M450.774 24.8745L423.079 31.374L423.167 60.4454C422.473 59.8065 421.493 60.1039 420.468 60.1039C419.477 60.1039 418.662 59.0794 417.968 59.6853L417.902 31.374L390.207 24.8745L390.24 58.9582L416.789 63.7833C417.681 65.2153 418.772 65.7001 420.457 65.7001C422.143 65.7001 423.288 65.1493 424.126 63.7943L450.73 59.0464L450.774 24.8745Z" fill="#0769DC"/>
<path d="M446.598 21.856C446.598 21.856 426.593 25.4252 424.015 26.2514C421.438 27.0666 420.38 28.8181 420.446 32.1339C420.523 35.4608 420.446 60.3461 420.446 60.3461L447.039 55.1685L446.598 21.856Z" fill="#CAE0FA"/>
<path d="M394.592 21.856C394.592 21.856 414.398 25.4252 416.976 26.2514C419.554 27.0666 420.611 28.8181 420.545 32.1339C420.468 35.4608 420.446 60.3461 420.446 60.3461L393.953 55.2346L394.592 21.856Z" fill="#A3C9F6"/>
<path d="M415.577 32.3656C415.544 32.3656 415.511 32.3656 415.478 32.3546L399.406 29.237C399.141 29.1819 398.965 28.9286 399.009 28.6532C399.064 28.3778 399.329 28.2125 399.593 28.2566L415.665 31.3741C415.93 31.4292 416.106 31.6826 416.062 31.958C416.018 32.2003 415.809 32.3656 415.577 32.3656Z" fill="#B3AFAB"/>
<path d="M415.577 37.0585C415.544 37.0585 415.511 37.0585 415.478 37.0474L399.395 33.9299C399.13 33.8748 398.954 33.6214 398.998 33.346C399.053 33.0706 399.317 32.9054 399.582 32.9495L415.665 36.067C415.93 36.1221 416.106 36.3755 416.062 36.6509C416.018 36.8932 415.808 37.0585 415.577 37.0585Z" fill="#B3AFAB"/>
<path d="M415.577 41.7406C415.544 41.7406 415.511 41.7406 415.478 41.7296L399.395 38.6121C399.13 38.557 398.954 38.3036 398.998 38.0282C399.053 37.7528 399.317 37.5766 399.582 37.6317L415.665 40.7492C415.93 40.8043 416.106 41.0577 416.062 41.3331C416.018 41.5754 415.808 41.7406 415.577 41.7406Z" fill="#B3AFAB"/>
<path d="M415.577 46.4218C415.544 46.4218 415.511 46.4218 415.478 46.4108L399.406 43.2932C399.141 43.2382 398.965 42.9848 399.009 42.7094C399.064 42.434 399.328 42.2577 399.593 42.3128L415.665 45.4304C415.93 45.4854 416.106 45.7388 416.062 46.0142C416.018 46.2566 415.808 46.4218 415.577 46.4218Z" fill="#B3AFAB"/>
<path d="M425.337 32.3656C425.37 32.3656 425.403 32.3656 425.437 32.3546L441.509 29.237C441.773 29.1819 441.95 28.9286 441.906 28.6532C441.85 28.3778 441.586 28.2125 441.322 28.2566L425.249 31.3741C424.985 31.4292 424.809 31.6826 424.853 31.958C424.897 32.2003 425.106 32.3656 425.337 32.3656Z" fill="#B3AFAB"/>
<path d="M425.338 37.0585C425.371 37.0585 425.404 37.0585 425.437 37.0474L441.52 33.9299C441.785 33.8748 441.961 33.6214 441.917 33.346C441.862 33.0706 441.597 32.9054 441.333 32.9495L425.25 36.067C424.985 36.1221 424.809 36.3755 424.853 36.6509C424.897 36.8932 425.106 37.0585 425.338 37.0585Z" fill="#B3AFAB"/>
<path d="M425.338 41.7406C425.371 41.7406 425.404 41.7406 425.437 41.7296L441.52 38.6121C441.785 38.557 441.961 38.3036 441.917 38.0282C441.862 37.7528 441.597 37.5766 441.333 37.6317L425.25 40.7492C424.985 40.8043 424.809 41.0577 424.853 41.3331C424.897 41.5754 425.106 41.7406 425.338 41.7406Z" fill="#B3AFAB"/>
<path d="M425.338 46.4218C425.371 46.4218 425.404 46.4218 425.437 46.4108L441.509 43.2932C441.774 43.2382 441.95 42.9848 441.906 42.7094C441.851 42.434 441.586 42.2577 441.322 42.3128L425.25 45.4304C424.985 45.4854 424.809 45.7388 424.853 46.0142C424.897 46.2566 425.106 46.4218 425.338 46.4218Z" fill="#B3AFAB"/>
<path d="M418.596 60.9853C419.191 60.6218 419.873 60.4125 420.623 60.4125C421.306 60.4125 421.956 60.5997 422.517 60.9082L447.7 56.8653L447.931 25.3814L446.521 21.8452L446.378 54.5299C446.378 54.5299 425.712 57.9669 423.861 58.3855C422.011 58.8151 420.49 60.3023 420.49 60.3023C420.49 60.3023 419.763 59.0575 417.439 58.4626C415.115 57.8677 394.603 54.3757 394.603 54.3757L394.658 21.9113L393.204 25.6127L393.292 56.6009L418.596 60.9853Z" fill="#4995EE"/>
<path d="M361.102 144.635C361.058 144.637 361.013 144.63 360.972 144.614C360.929 144.6 360.89 144.576 360.857 144.545C360.826 144.515 360.801 144.48 360.784 144.441C360.766 144.402 360.757 144.359 360.757 144.316C360.757 144.273 360.766 144.231 360.783 144.191C360.8 144.152 360.824 144.117 360.855 144.087C360.887 144.054 360.926 144.029 360.97 144.013C361.011 143.996 361.056 143.988 361.101 143.99C361.145 143.989 361.19 143.997 361.232 144.013C361.275 144.029 361.314 144.054 361.347 144.085C361.379 144.114 361.405 144.149 361.423 144.189C361.441 144.228 361.45 144.271 361.45 144.314C361.451 144.356 361.443 144.399 361.427 144.438C361.41 144.478 361.384 144.514 361.352 144.543C361.284 144.605 361.194 144.638 361.102 144.635Z" fill="white"/>
<path d="M364.87 144.56L364.259 144.562L362.63 142.037C362.589 141.973 362.554 141.906 362.526 141.837L362.513 141.837C362.531 141.994 362.538 142.152 362.534 142.311L362.543 144.571L362 144.573L361.987 141.124L362.638 141.122L364.211 143.588C364.278 143.688 364.32 143.762 364.341 143.797L364.35 143.797C364.331 143.643 364.323 143.488 364.325 143.333L364.317 141.112L364.856 141.11L364.87 144.56Z" fill="white"/>
<path d="M367.509 144.547L365.611 144.554L365.591 141.104L367.413 141.097L367.415 141.583L366.15 141.588L366.153 142.568L367.314 142.564L367.316 143.048L366.155 143.053L366.159 144.073L367.501 144.068L367.509 144.547Z" fill="white"/>
<path d="M370.184 141.567L369.217 141.571L369.235 144.534L368.669 144.536L368.651 141.573L367.682 141.577L367.68 141.09L370.18 141.074L370.184 141.567Z" fill="white"/>
<path d="M407.795 162.711C407.8 163.971 393.773 165.053 376.472 165.118C359.171 165.182 345.137 164.209 345.133 162.944L345.127 161.406C345.127 161.406 361.609 159.906 376.453 159.85C392.329 159.791 407.581 160.063 407.757 161.091C407.817 161.411 407.795 162.607 407.795 162.711Z" fill="#E3A7A4"/>
<path d="M376.467 163.579C393.771 163.515 407.794 162.438 407.789 161.173C407.785 159.907 393.751 158.935 376.45 158.999C359.149 159.063 345.122 160.14 345.127 161.405C345.132 162.671 359.163 163.643 376.467 163.579Z" fill="white"/>
<path d="M357.519 159.352L357.466 145.127C357.465 144.803 357.545 144.485 357.7 144.201C357.855 143.917 358.078 143.676 358.35 143.5L362.868 139.299C363.242 139.058 363.696 138.974 364.132 139.065C364.568 139.155 364.853 139.219 364.853 139.219C364.853 139.219 390.801 144.058 392.434 145.175C394.068 146.293 392.811 147.487 392.811 147.487C392.811 147.487 362.226 161.768 359.878 161.776C357.529 161.785 357.519 159.352 357.519 159.352Z" fill="#C95E58"/>
<path d="M392.515 163.122L359.878 161.777L359.85 146.018L392.815 147.486L393.056 162.592C393.057 162.662 393.044 162.732 393.018 162.797C392.992 162.862 392.953 162.921 392.903 162.971C392.853 163.021 392.793 163.06 392.728 163.086C392.66 163.113 392.588 163.125 392.515 163.122Z" fill="#8D312C"/>
<path d="M359.861 151.638L392.9 153.04L392.876 151.622L359.858 150.149L359.861 151.638Z" fill="#C95E58"/>
<path d="M359.87 157.327L392.997 158.733L392.974 157.314L359.873 155.844L359.87 157.327Z" fill="#C95E58"/>
<path d="M372.339 133.454L373.416 133.45C373.699 133.449 373.971 133.56 374.171 133.758C374.372 133.957 374.485 134.226 374.486 134.508L374.523 144.407C374.524 144.51 374.483 144.61 374.409 144.683C374.336 144.757 374.236 144.798 374.132 144.799L371.759 144.808C371.655 144.808 371.555 144.767 371.481 144.694C371.407 144.621 371.366 144.522 371.365 144.419L371.328 134.474C371.328 134.204 371.434 133.946 371.625 133.755C371.815 133.564 372.074 133.456 372.345 133.454L372.339 133.454Z" fill="#FFA0D0"/>
<path d="M372.937 132.581L372.822 132.581C372.799 132.581 372.776 132.586 372.755 132.595C372.734 132.604 372.715 132.617 372.699 132.633C372.682 132.649 372.67 132.668 372.661 132.689C372.652 132.711 372.648 132.733 372.648 132.756L372.652 133.812C372.652 133.835 372.656 133.857 372.665 133.878C372.674 133.899 372.687 133.919 372.703 133.935C372.72 133.951 372.739 133.964 372.76 133.972C372.782 133.981 372.804 133.985 372.827 133.985L372.942 133.985C372.965 133.985 372.988 133.98 373.009 133.971C373.03 133.963 373.049 133.95 373.066 133.933C373.082 133.917 373.095 133.898 373.103 133.877C373.112 133.856 373.116 133.833 373.116 133.81L373.112 132.754C373.112 132.732 373.108 132.709 373.099 132.688C373.09 132.667 373.077 132.648 373.061 132.631C373.045 132.615 373.025 132.603 373.004 132.594C372.983 132.585 372.96 132.581 372.937 132.581Z" fill="#999999"/>
<path d="M374.224 131.287C374.202 129.819 372.487 128.267 372.487 128.267C372.51 128.364 372.534 129.334 371.92 130.361C371.487 131.04 371.464 131.337 371.465 131.547C371.468 132.425 372.086 132.836 372.849 132.833C373.613 132.83 374.242 132.26 374.224 131.287Z" fill="#FF8E00"/>
<path d="M366.603 132.878L367.68 132.874C367.963 132.873 368.234 132.984 368.435 133.182C368.636 133.38 368.749 133.65 368.75 133.932L368.787 143.827C368.787 143.931 368.746 144.03 368.673 144.104C368.6 144.177 368.5 144.219 368.396 144.219L366.017 144.228C365.913 144.228 365.813 144.188 365.739 144.115C365.665 144.042 365.624 143.943 365.623 143.839L365.586 133.897C365.586 133.628 365.692 133.37 365.883 133.179C366.073 132.987 366.332 132.879 366.603 132.878Z" fill="#DFFF58"/>
<path d="M367.201 132.002L367.086 132.003C367.063 132.003 367.04 132.007 367.019 132.016C366.998 132.025 366.979 132.038 366.963 132.054C366.946 132.07 366.934 132.09 366.925 132.111C366.916 132.132 366.912 132.155 366.912 132.177L366.916 133.233C366.916 133.256 366.92 133.279 366.929 133.3C366.938 133.321 366.951 133.34 366.967 133.356C366.984 133.372 367.003 133.385 367.024 133.394C367.045 133.402 367.068 133.407 367.091 133.407L367.206 133.406C367.229 133.406 367.252 133.402 367.273 133.393C367.294 133.384 367.313 133.371 367.33 133.355C367.346 133.339 367.359 133.319 367.367 133.298C367.376 133.277 367.38 133.254 367.38 133.232L367.376 132.176C367.376 132.153 367.372 132.13 367.363 132.109C367.354 132.088 367.341 132.069 367.325 132.053C367.308 132.037 367.289 132.024 367.268 132.015C367.247 132.007 367.224 132.002 367.201 132.002Z" fill="#999999"/>
<path d="M368.486 130.71C368.466 129.244 366.75 127.691 366.75 127.691C366.772 127.789 366.797 128.759 366.183 129.786C365.75 130.464 365.726 130.761 365.727 130.97C365.731 131.85 366.35 132.26 367.112 132.257C367.875 132.254 368.502 131.681 368.486 130.71Z" fill="#FF8E00"/>
<path d="M376.376 132.302L377.453 132.298C377.736 132.297 378.008 132.408 378.208 132.606C378.409 132.805 378.522 133.074 378.523 133.356L378.56 143.256C378.561 143.36 378.52 143.459 378.446 143.533C378.373 143.606 378.273 143.648 378.169 143.648L375.79 143.657C375.686 143.657 375.586 143.617 375.512 143.544C375.439 143.471 375.397 143.371 375.396 143.268L375.359 133.322C375.359 133.053 375.465 132.794 375.656 132.603C375.846 132.412 376.105 132.304 376.376 132.302Z" fill="#80D6E9"/>
<path d="M376.974 131.427L376.859 131.427C376.813 131.427 376.768 131.446 376.736 131.479C376.703 131.511 376.685 131.556 376.685 131.602L376.689 132.658C376.689 132.704 376.708 132.748 376.741 132.78C376.773 132.813 376.818 132.831 376.864 132.831L376.979 132.831C377.026 132.83 377.07 132.812 377.103 132.779C377.135 132.746 377.154 132.702 377.154 132.656L377.15 131.6C377.149 131.554 377.131 131.51 377.098 131.477C377.065 131.445 377.02 131.426 376.974 131.427Z" fill="#999999"/>
<path d="M378.26 130.135C378.239 128.668 376.523 127.116 376.523 127.116C376.546 127.213 376.57 128.183 375.956 129.21C375.523 129.888 375.5 130.186 375.5 130.395C375.504 131.274 376.123 131.684 376.885 131.681C377.648 131.678 378.276 131.108 378.26 130.135Z" fill="#FF8E00"/>
<path d="M380.803 133.659L381.88 133.655C382.02 133.654 382.159 133.681 382.289 133.734C382.418 133.787 382.536 133.865 382.635 133.963C382.735 134.061 382.814 134.178 382.868 134.306C382.922 134.435 382.95 134.573 382.95 134.712L382.987 144.61C382.988 144.714 382.947 144.813 382.873 144.887C382.8 144.96 382.7 145.002 382.596 145.002L380.214 145.011C380.11 145.011 380.01 144.971 379.936 144.898C379.862 144.825 379.82 144.726 379.82 144.622L379.783 134.678C379.782 134.409 379.889 134.151 380.079 133.96C380.269 133.769 380.528 133.66 380.798 133.659L380.803 133.659Z" fill="#DFFF58"/>
<path d="M381.396 132.778L381.281 132.779C381.259 132.779 381.236 132.783 381.215 132.792C381.193 132.801 381.174 132.814 381.158 132.83C381.142 132.846 381.129 132.866 381.12 132.887C381.112 132.908 381.107 132.93 381.107 132.953L381.111 134.009C381.111 134.055 381.13 134.099 381.163 134.132C381.196 134.165 381.24 134.183 381.287 134.182L381.402 134.182C381.448 134.182 381.492 134.163 381.525 134.131C381.558 134.098 381.576 134.054 381.576 134.007L381.572 132.952C381.572 132.929 381.567 132.906 381.558 132.885C381.55 132.864 381.537 132.845 381.52 132.829C381.504 132.813 381.485 132.8 381.463 132.791C381.442 132.783 381.419 132.778 381.396 132.778Z" fill="#999999"/>
<path d="M382.684 131.491C382.663 130.024 380.948 128.472 380.948 128.472C380.97 128.569 380.995 129.539 380.381 130.566C379.948 131.245 379.924 131.543 379.925 131.751C379.929 132.63 380.548 133.04 381.31 133.037C382.073 133.035 382.703 132.464 382.684 131.491Z" fill="#FF8E00"/>
<path opacity="0.68" d="M230.06 150.355C237.193 149.347 242.067 142.154 240.957 134.3C239.847 126.446 233.172 120.885 226.038 121.893C218.905 122.901 214.032 130.094 215.141 137.948C216.251 145.802 222.938 151.362 230.06 150.355Z" fill="url(#paint16_linear_2596_5478)"/>
<path opacity="0.68" d="M264.47 145.493C271.592 144.487 276.476 137.291 275.367 129.438C274.257 121.584 267.581 116.023 260.448 117.031C253.315 118.039 248.441 125.232 249.551 133.086C250.661 140.939 257.348 146.499 264.47 145.493Z" fill="url(#paint17_linear_2596_5478)"/>
<path d="M280.575 130.173L279.859 127.309C279.814 127.097 279.694 126.909 279.521 126.78C279.347 126.65 279.132 126.587 278.916 126.603C278.029 126.705 276.516 126.54 275.525 124.508C272.749 118.43 266.69 114.62 260.315 115.521C253.635 116.465 248.729 122.284 248.083 129.317C246.695 128.237 246.169 127.541 244.482 127.78C242.795 128.018 242.473 128.845 241.428 130.28C238.857 123.69 232.53 119.447 225.838 120.392C219.463 121.293 214.699 126.644 213.714 133.242C213.313 135.471 211.916 136.048 211.036 136.195C210.823 136.238 210.633 136.357 210.502 136.53C210.371 136.704 210.308 136.918 210.326 137.134L210.431 140.085C210.454 140.575 210.809 140.962 211.26 140.967C212.269 140.997 214.028 141.346 215.204 143.295C218.022 149.263 224.012 152.991 230.33 152.099C238.267 150.977 243.706 142.968 242.469 134.213C242.426 133.909 242.372 133.606 242.318 133.303C242.975 131.498 243.158 130.346 244.823 130.111C246.487 129.875 246.957 130.912 248.086 132.442C248.108 132.761 248.152 133.076 248.198 133.403C249.436 142.158 256.87 148.348 264.818 147.225C271.125 146.334 275.858 141.091 276.913 134.575C277.503 132.377 279.094 131.543 280.057 131.246C280.444 131.122 280.687 130.64 280.575 130.173ZM229.977 149.769C223.206 150.726 216.86 145.451 215.804 137.981C214.749 130.51 219.385 123.683 226.156 122.727C232.927 121.77 239.274 127.045 240.329 134.515C241.385 141.986 236.748 148.812 229.977 149.769ZM264.455 144.897C257.684 145.854 251.337 140.579 250.282 133.109C249.226 125.638 253.863 118.811 260.634 117.855C267.405 116.898 273.751 122.173 274.807 129.643C275.862 137.114 271.226 143.941 264.455 144.897Z" fill="#2B0B98"/>
<defs>
<radialGradient id="paint0_radial_2596_5478" cx="0" cy="0" r="1" gradientUnits="userSpaceOnUse" gradientTransform="translate(315.016 172.723) rotate(1.55588) scale(304.912 176.203)">
<stop offset="0.1821" stop-color="#E1EFF9"/>
<stop offset="0.9144" stop-color="#B8D6F7"/>
</radialGradient>
<radialGradient id="paint1_radial_2596_5478" cx="0" cy="0" r="1" gradientUnits="userSpaceOnUse" gradientTransform="translate(179.244 116.7) scale(53.8753)">
<stop offset="0.0613" stop-color="#1BA6C5"/>
<stop offset="0.8867" stop-color="#57CACF"/>
</radialGradient>
<linearGradient id="paint2_linear_2596_5478" x1="223.878" y1="208.535" x2="223.878" y2="178.802" gradientUnits="userSpaceOnUse">
<stop offset="0.0613" stop-color="#1BA6C5"/>
<stop offset="0.8867" stop-color="#57CACF"/>
</linearGradient>
<linearGradient id="paint3_linear_2596_5478" x1="236.396" y1="170.974" x2="237.253" y2="208.39" gradientUnits="userSpaceOnUse">
<stop offset="0.252" stop-color="#522CD5"/>
<stop offset="0.5558" stop-color="#8A6FE8"/>
</linearGradient>
<linearGradient id="paint4_linear_2596_5478" x1="236.706" y1="206.264" x2="251.904" y2="251.048" gradientUnits="userSpaceOnUse">
<stop stop-color="#522CD5"/>
<stop offset="0.4397" stop-color="#8A6FE8"/>
</linearGradient>
<radialGradient id="paint5_radial_2596_5478" cx="0" cy="0" r="1" gradientUnits="userSpaceOnUse" gradientTransform="translate(249.092 231.611) rotate(10.2964) scale(16.6255 15.7953)">
<stop offset="0.034" stop-color="#522CD5"/>
<stop offset="0.9955" stop-color="#8A6FE8"/>
</radialGradient>
<linearGradient id="paint6_linear_2596_5478" x1="215.63" y1="174.249" x2="227.302" y2="207.01" gradientUnits="userSpaceOnUse">
<stop offset="0.252" stop-color="#522CD5"/>
<stop offset="0.5558" stop-color="#8A6FE8"/>
</linearGradient>
<radialGradient id="paint7_radial_2596_5478" cx="0" cy="0" r="1" gradientUnits="userSpaceOnUse" gradientTransform="translate(228.701 114.911) rotate(171.455) scale(51.063 48.6282)">
<stop offset="0.4744" stop-color="#A08BE8"/>
<stop offset="0.8618" stop-color="#8065E0"/>
</radialGradient>
<radialGradient id="paint8_radial_2596_5478" cx="0" cy="0" r="1" gradientUnits="userSpaceOnUse" gradientTransform="translate(263.259 111.548) rotate(171.455) scale(52.9176 50.3944)">
<stop offset="0.0933" stop-color="#E1DFDD"/>
<stop offset="0.6573" stop-color="white"/>
</radialGradient>
<radialGradient id="paint9_radial_2596_5478" cx="0" cy="0" r="1" gradientUnits="userSpaceOnUse" gradientTransform="translate(287.968 153.784) rotate(-67.3311) scale(9.53407 9.14601)">
<stop stop-color="#8065E0"/>
<stop offset="1" stop-color="#512BD4"/>
</radialGradient>
<linearGradient id="paint10_linear_2596_5478" x1="219.326" y1="206.006" x2="213.118" y2="253.448" gradientUnits="userSpaceOnUse">
<stop stop-color="#522CD5"/>
<stop offset="0.4397" stop-color="#8A6FE8"/>
</linearGradient>
<radialGradient id="paint11_radial_2596_5478" cx="0" cy="0" r="1" gradientUnits="userSpaceOnUse" gradientTransform="translate(220.202 237.012) rotate(35.1098) scale(14.8775 15.1519)">
<stop offset="0.034" stop-color="#522CD5"/>
<stop offset="0.9955" stop-color="#8A6FE8"/>
</radialGradient>
<linearGradient id="paint12_linear_2596_5478" x1="176.267" y1="154.29" x2="205.866" y2="182.173" gradientUnits="userSpaceOnUse">
<stop offset="0.2495" stop-color="#967FE6"/>
<stop offset="0.6748" stop-color="#8A6FE8"/>
</linearGradient>
<radialGradient id="paint13_radial_2596_5478" cx="0" cy="0" r="1" gradientUnits="userSpaceOnUse" gradientTransform="translate(212.839 176.617) rotate(94.5976) scale(9.27905 9.39347)">
<stop stop-color="#8065E0"/>
<stop offset="1" stop-color="#512BD4"/>
</radialGradient>
<radialGradient id="paint14_radial_2596_5478" cx="0" cy="0" r="1" gradientUnits="userSpaceOnUse" gradientTransform="translate(186.085 143.142) rotate(-8.54511) scale(9.41756 8.96852)">
<stop stop-color="#8065E0"/>
<stop offset="1" stop-color="#512BD4"/>
</radialGradient>
<linearGradient id="paint15_linear_2596_5478" x1="336.639" y1="161.696" x2="336.639" y2="276.768" gradientUnits="userSpaceOnUse">
<stop offset="0.0613" stop-color="#1BA6C5"/>
<stop offset="0.252" stop-color="#57CACF"/>
</linearGradient>
<linearGradient id="paint16_linear_2596_5478" x1="240.732" y1="134.332" x2="214.273" y2="138.071" gradientUnits="userSpaceOnUse">
<stop stop-color="#FFBE46"/>
<stop offset="0.13" stop-color="#FF8757"/>
<stop offset="0.54" stop-color="#FF436D"/>
<stop offset="0.79" stop-color="#BE249B"/>
<stop offset="1" stop-color="#7029C4"/>
</linearGradient>
<linearGradient id="paint17_linear_2596_5478" x1="275.141" y1="129.47" x2="248.683" y2="133.208" gradientUnits="userSpaceOnUse">
<stop stop-color="#FFBE46"/>
<stop offset="0.13" stop-color="#FF8757"/>
<stop offset="0.54" stop-color="#FF436D"/>
<stop offset="0.79" stop-color="#BE249B"/>
<stop offset="1" stop-color="#7029C4"/>
</linearGradient>
</defs>
</svg>
